# xmcd CD database file
#
# Track frame offsets:
#	150
#	13278
#	34593
#	49010
#	73584
#	91551
#	110789
#	131464
#	147362
#	163579
#	182276
#	199342
#	211917
#	226144
#	237909
#	259573
#	278048
#
# Disc length: 3925 seconds
#
# Revision: 2
# Processed by: cddbd v1.5.2PL0 Copyright (c) Steve Scherf et al.
# Submitted via: CDex 1.97
#
DISCID=e50f5311
DTITLE=John Denver - John Denver - The Real John Denver [CD2]
DYEAR=2013
DGENRE=Country
TTITLE0=Daydreams
TTITLE1=Back Home Again
TTITLE2=Shanghai Breezes
TTITLE3=Sweet Surrender
TTITLE4=Looking For Space
TTITLE5=Is It Love?
TTITLE6=The Cowboy And The Lady
TTITLE7=I'm Sorry
TTITLE8=Calypso
TTITLE9=Fly Away
TTITLE10=I Want To Live
TTITLE11=Baby, You Look Good To Me Tonight
TTITLE12=How Can I Leave You Again
TTITLE13=It Amazes Me
TTITLE14=My Sweet Lady
TTITLE15=Dreamland Express
TTITLE16=Autograph
EXTD=YEAR: 2013
EXTT0=
EXTT1=
EXTT2=
EXTT3=
EXTT4=
EXTT5=
EXTT6=
EXTT7=
EXTT8=
EXTT9=
EXTT10=
EXTT11=
EXTT12=
EXTT13=
EXTT14=
EXTT15=
EXTT16=
PLAYORDER=
